<?xml version="1.0" encoding="utf-8"?>
<!-- Generator: Adobe Illustrator 24.2.1, SVG Export Plug-In . SVG Version: 6.00 Build 0)  -->
<svg version="1.1" id="Layer_1" focusable="false" xmlns="http://www.w3.org/2000/svg" xmlns:xlink="http://www.w3.org/1999/xlink"
	 x="0px" y="0px" viewBox="0 0 512 512" enable-background="new 0 0 512 512" xml:space="preserve">
<path d="M480,80v352c0,26.5-21.5,48-48,48H80c-26.5,0-48-21.5-48-48V80c0-26.5,21.5-48,48-48h352C458.5,32,480,53.5,480,80z
	 M432,426V86c0-3.3-2.7-6-6-6H86c-3.3,0-6,2.7-6,6v340c0,3.3,2.7,6,6,6h340C429.3,432,432,429.3,432,426z M168.7,244.6l136-136
	c6.6-6.6,17.2-6.6,23.8,0l15.9,15.9c6.6,6.6,6.6,17.2,0,23.7L236.5,256.5l107.8,108.3c6.5,6.6,6.5,17.2,0,23.7l-15.9,15.9
	c-6.6,6.6-17.2,6.6-23.8,0l-136-136C162.1,261.8,162.1,251.2,168.7,244.6z"/>
</svg>
