<?xml version="1.0" encoding="utf-8"?>
<!-- Generator: Adobe Illustrator 24.2.3, SVG Export Plug-In . SVG Version: 6.00 Build 0)  -->
<svg version="1.1" id="Layer_1" xmlns="http://www.w3.org/2000/svg" xmlns:xlink="http://www.w3.org/1999/xlink" x="0px" y="0px"
	 viewBox="0 0 512 512" enable-background="new 0 0 512 512" xml:space="preserve">
<path d="M560,448h-80V113.5c0-27.3-21.5-49.4-48-49.4H320v64h96v384h144c8.8,0,16-7.2,16-16v-32C576,455.2,568.8,448,560,448z
	 M32,448h-80c-8.8,0-16,7.2-16,16v32c0,8.8,7.2,16,16,16h336V33.2c0-21.6-19.6-37.4-39.8-32.2l-192,49.7C42,54.4,32,67.7,32,82.9"/>
<path fill="#FFFFFF" d="M236,119.6c-75.4,0-136.4,61.1-136.4,136.4s61,136.4,136.4,136.4S372.4,331.4,372.4,256
	S311.4,119.6,236,119.6z"/>
<path d="M236,144.4c-61.6,0-111.6,49.9-111.6,111.6s50,111.6,111.6,111.6s111.6-50,111.6-111.6S297.6,144.4,236,144.4z M300.8,268.6
	c0,3-2.4,5.4-5.4,5.4H254v41.4c0,3-2.4,5.4-5.4,5.4h-25.2c-3,0-5.4-2.4-5.4-5.4V274h-41.4c-3,0-5.4-2.4-5.4-5.4v-25.2
	c0-3,2.4-5.4,5.4-5.4H218v-41.4c0-3,2.4-5.4,5.4-5.4h25.2c3,0,5.4,2.4,5.4,5.4V238h41.4c3,0,5.4,2.4,5.4,5.4V268.6z"/>
</svg>
