<?xml version="1.0" encoding="utf-8"?>
<!-- Generator: Adobe Illustrator 24.2.3, SVG Export Plug-In . SVG Version: 6.00 Build 0)  -->
<svg version="1.1" id="Layer_1" xmlns="http://www.w3.org/2000/svg" xmlns:xlink="http://www.w3.org/1999/xlink" x="0px" y="0px"
	 viewBox="0 0 512 512" enable-background="new 0 0 512 512" xml:space="preserve">
<path d="M288,382.1V512H-48c-8.8,0-16-7.2-16-16v-32c0-8.8,7.2-16,16-16h80V82.9c0-15.2,10-28.5,24.2-32.2L248.2,1
	C268.4-4.2,288,11.6,288,33.2v96.7c-16-6.6-33.6-10.3-52-10.3c-75.3,0-136.4,61.1-136.4,136.4S160.7,392.4,236,392.4
	C254.4,392.4,272,388.7,288,382.1z M560,448h-80V113.5c0-27.3-21.5-49.5-48-49.5H320v64h96v384h144c8.8,0,16-7.2,16-16v-32
	C576,455.2,568.8,448,560,448z M347.6,256c0,61.6-50,111.6-111.6,111.6s-111.6-50-111.6-111.6s50-111.6,111.6-111.6
	S347.6,194.4,347.6,256z M300.8,243.4c0-3-2.4-5.4-5.4-5.4H254v-41.4c0-3-2.4-5.4-5.4-5.4h-25.2c-3,0-5.4,2.4-5.4,5.4V238h-41.4
	c-3,0-5.4,2.4-5.4,5.4v25.2c0,3,2.4,5.4,5.4,5.4H218v41.4c0,3,2.4,5.4,5.4,5.4h25.2c3,0,5.4-2.4,5.4-5.4V274h41.4
	c3,0,5.4-2.4,5.4-5.4V243.4z"/>
</svg>
