<?xml version="1.0" encoding="utf-8"?>
<!-- Generator: Adobe Illustrator 26.1.0, SVG Export Plug-In . SVG Version: 6.00 Build 0)  -->
<svg version="1.1" id="Layer_1" focusable="false" xmlns="http://www.w3.org/2000/svg" xmlns:xlink="http://www.w3.org/1999/xlink"
	 x="0px" y="0px" viewBox="0 0 512 512" enable-background="new 0 0 512 512" xml:space="preserve">
<rect y="344" width="512" height="64"/>
<rect x="344" width="64" height="512"/>
<rect y="104" width="512" height="64"/>
<rect x="104" width="64" height="512"/>
<path d="M215.2,324h54.4h27.2c15,0,27.2-12.2,27.2-27.2v-27.2v-54.4c0-15-12.2-27.2-27.2-27.2h-81.6c-15,0-27.2,12.2-27.2,27.2v81.6
	C188,311.8,200.2,324,215.2,324z"/>
<rect x="240" y="240" fill="#FFFFFF" width="32" height="32"/>
<path d="M564,296.8v-81.6c0-15-12.2-27.2-27.2-27.2h-81.6c-15,0-27.2,12.2-27.2,27.2v54.4v27.2c0,15,12.2,27.2,27.2,27.2h27.2h54.4
	C551.8,324,564,311.8,564,296.8z"/>
<rect x="480" y="240" fill="#FFFFFF" width="32" height="32"/>
<path d="M-24.8,324h54.4h27.2c15,0,27.2-12.2,27.2-27.2v-27.2v-54.4c0-15-12.2-27.2-27.2-27.2h-81.6c-15,0-27.2,12.2-27.2,27.2v81.6
	C-52,311.8-39.8,324-24.8,324z"/>
<rect y="240" fill="#FFFFFF" width="32" height="32"/>
<path d="M188,455.2v81.6c0,15,12.2,27.2,27.2,27.2h81.6c15,0,27.2-12.2,27.2-27.2v-54.4v-27.2c0-15-12.2-27.2-27.2-27.2h-27.2h-54.4
	C200.2,428,188,440.2,188,455.2z"/>
<rect x="240" y="480" fill="#FFFFFF" width="32" height="32"/>
<path d="M536.8,428h-54.4h-27.2c-15,0-27.2,12.2-27.2,27.2v27.2v54.4c0,15,12.2,27.2,27.2,27.2h81.6c15,0,27.2-12.2,27.2-27.2v-81.6
	C564,440.2,551.8,428,536.8,428z"/>
<rect x="480" y="480" fill="#FFFFFF" width="32" height="32"/>
<path d="M-52,455.2v81.6c0,15,12.2,27.2,27.2,27.2h81.6c15,0,27.2-12.2,27.2-27.2v-54.4v-27.2c0-15-12.2-27.2-27.2-27.2H29.6h-54.4
	C-39.8,428-52,440.2-52,455.2z"/>
<rect y="480" fill="#FFFFFF" width="32" height="32"/>
<path d="M188-24.8v81.6c0,15,12.2,27.2,27.2,27.2h81.6c15,0,27.2-12.2,27.2-27.2V2.4v-27.2c0-15-12.2-27.2-27.2-27.2h-27.2h-54.4
	C200.2-52,188-39.8,188-24.8z"/>
<rect x="240" fill="#FFFFFF" width="32" height="32"/>
<path d="M536.8-52h-54.4h-27.2c-15,0-27.2,12.2-27.2,27.2V2.4v54.4c0,15,12.2,27.2,27.2,27.2h81.6c15,0,27.2-12.2,27.2-27.2v-81.6
	C564-39.8,551.8-52,536.8-52z"/>
<rect x="480" fill="#FFFFFF" width="32" height="32"/>
<path d="M-52-24.8v81.6c0,15,12.2,27.2,27.2,27.2h81.6C71.8,84,84,71.8,84,56.8V2.4v-27.2C84-39.8,71.8-52,56.8-52H29.6h-54.4
	C-39.8-52-52-39.8-52-24.8z"/>
<rect fill="#FFFFFF" width="32" height="32"/>
</svg>
