<?xml version="1.0" encoding="utf-8"?>
<!-- Generator: Adobe Illustrator 25.0.1, SVG Export Plug-In . SVG Version: 6.00 Build 0)  -->
<svg version="1.1" id="Layer_1" focusable="false" xmlns="http://www.w3.org/2000/svg" xmlns:xlink="http://www.w3.org/1999/xlink"
	 x="0px" y="0px" viewBox="0 0 512 512" style="enable-background:new 0 0 512 512;" xml:space="preserve">
<path d="M464,448H48c-26.5,0-48-21.5-48-48V112c0-26.5,21.5-48,48-48h416c26.5,0,48,21.5,48,48v288C512,426.5,490.5,448,464,448z"/>
<circle style="fill:#FFFFFF;" cx="256" cy="345.5" r="46"/>
<path style="fill:#FFFFFF;" d="M212.3,134.2l7.4,136c0.3,6.4,5.6,11.3,12,11.3h48.5c6.4,0,11.6-5,12-11.3l7.4-136
	c0.4-6.9-5.1-12.7-12-12.7h-63.4C217.4,121.5,212,127.3,212.3,134.2L212.3,134.2z"/>
</svg>
