<?xml version="1.0" encoding="utf-8"?>
<!-- Generator: Adobe Illustrator 24.2.3, SVG Export Plug-In . SVG Version: 6.00 Build 0)  -->
<svg version="1.1" id="Layer_1" focusable="false" xmlns="http://www.w3.org/2000/svg" xmlns:xlink="http://www.w3.org/1999/xlink"
	 x="0px" y="0px" viewBox="0 0 512 512" enable-background="new 0 0 512 512" xml:space="preserve">
<path d="M285.2,22.1c-7.9-28.8-49.4-30.1-58.4,0C180,179.9,80,222.7,80,333.9C80,432.4,158.7,512,256,512s176-79.6,176-178.1
	C432,222.2,332.2,180.6,285.2,22.1z M256,448c-61.8,0-112-50.3-112-112c0-8.8,7.2-16,16-16s16,7.2,16,16c0,44.1,35.9,80,80,80
	c8.8,0,16,7.2,16,16S264.8,448,256,448z"/>
<path d="M457.7,471c12.5,12.5,32.8,12.5,45.2,0c12.5-12.5,12.5-32.8,0-45.2l-421-421c-6.2-6.3-16.4-6.3-22.6,0L36.7,27.4
	c-6.2,6.2-6.2,16.4,0,22.6L457.7,471z"/>
<path fill="#FFFFFF" d="M412.5,516.3c12.5,12.5,32.8,12.5,45.2,0c12.5-12.5,12.5-32.8,0-45.2L36.7,50c-6.2-6.3-16.4-6.3-22.6,0
	L-8.6,72.6c-6.2,6.3-6.2,16.4,0,22.6L412.5,516.3z"/>
</svg>
