<?xml version="1.0" encoding="utf-8"?>
<!-- Generator: Adobe Illustrator 24.3.0, SVG Export Plug-In . SVG Version: 6.00 Build 0)  -->
<svg version="1.1" id="Layer_1" focusable="false" xmlns="http://www.w3.org/2000/svg" xmlns:xlink="http://www.w3.org/1999/xlink"
	 x="0px" y="0px" viewBox="0 0 512 512" enable-background="new 0 0 512 512" xml:space="preserve">
<path d="M480,240v96c0,3.1-0.4,6.2-1.1,9.2l-32,136c-4.3,18.1-20.4,30.8-38.9,30.8H200c-12.8,0-24.8-6.1-32.4-16.5l-128-176
	c-13-17.9-9-42.9,8.8-55.9c17.9-13,42.9-9,55.9,8.8L136,316V40c0-22.1,17.9-40,40-40s40,17.9,40,40v200h8v-40c0-22.1,17.9-40,40-40
	s40,17.9,40,40v40h8v-24c0-22.1,17.9-40,40-40s40,17.9,40,40v24h8c0-22.1,17.9-40,40-40S480,217.9,480,240z M224,320h-8v96h8V320z
	 M312,320h-8v96h8V320z M400,320h-8v96h8V320z"/>
<path fill="none" stroke="#000000" stroke-width="40" stroke-linecap="round" stroke-miterlimit="10" d="M246,31
	c99-17,105,56,155,62c57.4,7.6,127.8-35.5,127.8-35.5"/>
</svg>
