<?xml version="1.0" encoding="utf-8"?>
<!-- Generator: Adobe Illustrator 24.2.1, SVG Export Plug-In . SVG Version: 6.00 Build 0)  -->
<svg version="1.1" id="Layer_1" focusable="false" xmlns="http://www.w3.org/2000/svg" xmlns:xlink="http://www.w3.org/1999/xlink"
	 x="0px" y="0px" viewBox="0 0 512 512" enable-background="new 0 0 512 512" xml:space="preserve">
<path d="M32,432V80c0-26.5,21.5-48,48-48h352c26.5,0,48,21.5,48,48v352c0,26.5-21.5,48-48,48H80C53.5,480,32,458.5,32,432z M80,86
	v340c0,3.3,2.7,6,6,6h340c3.3,0,6-2.7,6-6V86c0-3.3-2.7-6-6-6H86C82.7,80,80,82.7,80,86z M343.3,267.4l-136,136
	c-6.6,6.6-17.2,6.6-23.8,0l-15.9-15.9c-6.6-6.6-6.6-17.2,0-23.7l107.8-108.3L167.6,147.2c-6.5-6.6-6.5-17.2,0-23.7l15.9-15.9
	c6.6-6.6,17.2-6.6,23.8,0l136,136C349.9,250.2,349.9,260.8,343.3,267.4z"/>
</svg>
