<?xml version="1.0" encoding="utf-8"?>
<!-- Generator: Adobe Illustrator 24.1.3, SVG Export Plug-In . SVG Version: 6.00 Build 0)  -->
<svg version="1.1" id="Layer_1" focusable="false" xmlns="http://www.w3.org/2000/svg" xmlns:xlink="http://www.w3.org/1999/xlink"
	 x="0px" y="0px" viewBox="0 0 512 512" style="enable-background:new 0 0 512 512;" xml:space="preserve">
<path d="M462,52H50C23.5,52,2,73.5,2,100v312c0,26.5,21.5,48,48,48h412c26.5,0,48-21.5,48-48V100C510,73.5,488.5,52,462,52z
	 M456,412H56c-3.3,0-6-2.7-6-6V106c0-3.3,2.7-6,6-6h400c3.3,0,6,2.7,6,6v300C462,409.3,459.3,412,456,412z"/>
</svg>
