<?xml version="1.0" encoding="utf-8"?>
<!-- Generator: Adobe Illustrator 24.2.1, SVG Export Plug-In . SVG Version: 6.00 Build 0)  -->
<svg version="1.1" id="Layer_1" focusable="false" xmlns="http://www.w3.org/2000/svg" xmlns:xlink="http://www.w3.org/1999/xlink"
	 x="0px" y="0px" viewBox="0 0 512 512" enable-background="new 0 0 512 512" xml:space="preserve">
<path d="M333.3,410.9h-23.1l-129-357.5C176.9,40.6,164.9,32,151.3,32h-46.6c-13.5,0-25.6,8.6-29.9,21.4l-129,357.5h-23.1
	c-8.7,0-15.8,7.1-15.8,15.8v31.6c0,8.7,7.1,15.8,15.8,15.8H49.1c8.7,0,15.8-7.1,15.8-15.8v-31.6c0-8.7-7.1-15.8-15.8-15.8H29.8
	l23-63.2h150.6l23,63.2H207c-8.7,0-15.8,7.1-15.8,15.8v31.6c0,8.7,7.1,15.8,15.8,15.8h126.3c8.7,0,15.8-7.1,15.8-15.8v-31.6
	C349.1,418,342,410.9,333.3,410.9z M81.6,268.8L128.1,141l46.5,127.8H81.6z"/>
<path fill="#FFFFFF" d="M278.5,524.1c-3,0-6,0-8.9-0.1c-13.1-0.2-23.7-11-23.7-24v-40c0-13.2,10.8-24,24-24c72,0,72-27.1,72-36V300
	h-24c-13.2,0-24-10.8-24-24v-40c0-13.2,10.8-24,24-24h24v-99.9c0-31.7-43.4-36.4-69.3-36.4c-0.8,0-1.7,0-2.5,0l-0.3,0
	c-13.2,0-23.9-10.8-23.9-24V12.1c0-13.2,10.7-24,23.9-24c1.8,0,3.6,0,5.5,0c25.2,0,70.6,0,110.6,33.7C421-7.8,460.3-12,494.6-12
	c2.6,0,5.2,0,7.7,0C515.4-11.8,526-1,526,12v40c0,13.3-10.8,24.1-24,24.1l-1.2,0c-47,0-70.8,12.1-70.8,36.1V212h24
	c13.2,0,24,10.8,24,24v40c0,13.2-10.8,24-24,24h-24v100.1c0,8.7,2.4,21.2,22.8,29.2c11.7,4.6,27.7,7,46.4,7c0.9,0,1.7,0,2.5,0l0.3,0
	c13.2,0,23.9,10.8,23.9,24v39.6c0,13.2-10.7,24-23.8,24c-2.3,0-4.6,0-6.9,0c-36.4,0-74.6-4.3-109.2-33.6
	C351.1,519.9,312.3,524.1,278.5,524.1z"/>
<path d="M514,52V12c0-6.6-5.3-11.9-11.8-12C469.6-0.3,424.5,0,386,38C348.3,0.7,305-0.1,269.9,0.1c-6.6,0-11.9,5.4-11.9,12v39.6
	c0,6.7,5.5,12.1,12.1,12c26-0.3,83.9,3.5,83.9,48.4V224h-36c-6.6,0-12,5.4-12,12v40c0,6.6,5.4,12,12,12h36v112c0,44.9-56.1,48-84,48
	c-6.6,0-12,5.3-12,12v40c0,6.6,5.3,11.9,11.8,12c32.5,0.4,77.7,0.1,116.2-37.9c37.7,37.2,81,38.1,116.1,37.8c6.6,0,11.9-5.4,11.9-12
	v-39.6c0-6.7-5.5-12.1-12.1-12c-26,0.3-83.9-3.3-83.9-48.2V288h36c6.6,0,12-5.4,12-12v-40c0-6.6-5.4-12-12-12h-36V112.2
	c0-44.9,56.1-48.2,84-48.1C508.6,64.1,514,58.7,514,52z"/>
<rect fill="none" width="512" height="512"/>
</svg>
