<?xml version="1.0" encoding="utf-8"?>
<svg xmlns="http://www.w3.org/2000/svg" viewBox="0 0 512 512">
<path d="M407,64h-87c0-35.3-28.7-64-64-64s-64,28.7-64,64h-87c-26.5,0-48,21.5-48,48v352c0,26.5,21.5,48,48,48h302c26.5,0,48-21.5,48-48V112C455,85.5,433.5,64,407,64z M256,40c13.3,0,24,10.7,24,24s-10.7,24-24,24c-13.3,0-24-10.7-24-24S242.7,40,256,40z M407,458c0,3.3-2.7,6-6,6H110c-3.3,0-5-2.7-5-6V118c0-3.3,1.7-6,5-6h50v36c0,6.6,5.4,12,12,12h168c6.6,0,12-5.4,12-12v-36h49c3.3,0,6,2.7,6,6V458z M291.3,279.2c29.9,29.9,29.5,77.8,0.2,107.3c-0.1,0.1-0.1,0.1-0.2,0.2l-33.6,33.6c-29.6,29.6-77.8,29.6-107.5,0c-29.6-29.6-29.6-77.9,0-107.5l18.6-18.6c4.9-4.9,13.4-1.6,13.6,5.3c0.3,8.9,1.9,17.8,4.8,26.4c1,2.9,0.3,6.1-1.9,8.3l-6.5,6.5c-14,14-14.5,36.8-0.6,51c14,14.3,37,14.4,51.2,0.3l33.6-33.6c14.1-14.1,14-36.9,0-50.9c-1.9-1.8-3.7-3.3-5.2-4.3c-2.1-1.4-3.4-3.8-3.5-6.3c-0.2-5.3,1.7-10.7,5.8-14.9l10.5-10.5c2.8-2.8,7.1-3.1,10.3-0.9C284.7,273.2,288.1,276,291.3,279.2L291.3,279.2z M361.8,208.7c-29.6-29.6-77.8-29.6-107.5,0l-33.6,33.6c-0.1,0.1-0.1,0.1-0.2,0.2c-29.3,29.4-29.7,77.4,0.2,107.3c3.2,3.2,6.6,6,10.3,8.6c3.2,2.2,7.5,1.9,10.3-0.9l10.5-10.5c4.2-4.2,6-9.6,5.8-14.9c-0.1-2.5-1.4-4.9-3.5-6.3c-1.5-1-3.3-2.4-5.2-4.3c-14-14-14.1-36.8,0-50.9l33.6-33.6c14.1-14.1,37.2-14,51.2,0.3c13.9,14.2,13.4,37-0.6,51l-6.5,6.5c-2.2,2.2-2.9,5.4-1.9,8.3c2.9,8.6,4.5,17.5,4.8,26.4c0.3,7,8.7,10.2,13.6,5.3l18.6-18.6C391.4,286.6,391.4,238.4,361.8,208.7L361.8,208.7z"/>
</svg>
