<?xml version="1.0" encoding="utf-8"?>
<svg xmlns="http://www.w3.org/2000/svg" viewBox="-43 -43 598 598">
<rect x="-43" y="-43" width="598" height="598" fill="#ccc"/>
<path d="M424,0h-97.9H320h-32H88C74.7,0,64,10.7,64,24v159v305c0,13.3,10.7,24,24,24h336c13.3,0,24-10.7,24-24V183v-23v-32v-6.1V24C448,10.7,437.3,0,424,0z M364.5,377.4L268,473.1c-6.7,6.6-17.4,6.6-24,0l-96.4-95.7c-10.2-10.1-3-27.4,11.3-27.4H224v-80c0-8.8,7.2-16,16-16h32c8.8,0,16,7.2,16,16v80h65.2C367.5,350,374.6,367.3,364.5,377.4z M118.7,48.6h41.5c11.2,0,19.9,1,25.9,2.9c6,1.9,10.6,4.7,13.6,8.3c3,3.6,5.1,8,6.2,13.2c1.1,5.2,1.6,13.2,1.6,24v15.1c0,11.1-1,19.1-3.1,24.2c-2.1,5.1-5.9,8.9-11.5,11.7c-5.6,2.7-12.9,4.1-21.9,4.1h-11.1v69.7h-41.2V48.6z M159.9,78.2v44.1c1.2,0.1,2.2,0.1,3,0.1c3.8,0,6.4-1,7.9-3c1.5-2,2.2-6.3,2.2-12.7V92.4c0-5.9-0.8-9.8-2.5-11.5C168.7,79.1,165.2,78.2,159.9,78.2z M219.3,48.6h30.8c19.9,0,33.4,1,40.4,3c7,2,12.3,5.3,16,9.8c3.7,4.6,5.9,9.6,6.9,15.2c0.9,5.6,1.4,16.6,1.4,33v60.6c0,15.5-0.7,25.9-2,31.2c-1.3,5.2-3.7,9.3-7,12.3c-3.3,3-7.4,5-12.3,6.2c-4.9,1.2-12.3,1.8-22.1,1.8h-52V48.6z M260.5,78.2v113.9c5.9,0,9.6-1.3,11-3.9c1.4-2.6,2.1-9.7,2.1-21.2V99.7c0-7.8-0.2-12.9-0.7-15.1c-0.5-2.2-1.5-3.8-3.1-4.9C268,78.7,265,78.2,260.5,78.2z M330.1,48.6h69.8v34.6h-28.6v32.8h25.4V149h-25.4v72.7h-41.2V48.6z"/>
</svg>
