<?xml version="1.0" encoding="utf-8"?>
<svg xmlns="http://www.w3.org/2000/svg" viewBox="-43 -43 598 598">
<rect x="-43" y="-43" width="598" height="598" fill="#ccc"/>
<path d="M128,151.4v209.2c9.7,5.6,17.8,13.7,23.4,23.4h209.2c0-0.1,0.1-0.2,0.1-0.3l-4.5-7.9l-32-56l0,0c-1.4,0.1-2.8,0.1-4.2,0.1c-35.3,0-64-28.7-64-64s28.7-64,64-64c1.4,0,2.8,0,4.2,0.1l0,0l32-56l4.5-7.9l-0.1-0.3H151.4c-5.6,9.7-13.7,17.8-23.4,23.4V151.4zM416.3,352c35.2,0.2,63.7,28.7,63.7,64s-28.7,64-64,64c-23.7,0-44.4-12.9-55.4-32H151.4c-11.1,19.1-31.7,32-55.4,32c-35.3,0-64-28.7-64-64c0-23.7,12.9-44.4,32-55.4V151.4c-19.1-11-32-31.7-32-55.4c0-35.3,28.7-64,64-64c23.7,0,44.4,12.9,55.4,32h209.2c11.1-19.1,31.7-32,55.4-32c35.3,0,64,28.7,64,64s-28.5,63.8-63.7,64l-4.5,7.9l-32,56l-2.3,4c4.2,8.5,6.5,18,6.5,28.1s-2.3,19.6-6.5,28.1l2.3,4l32,56L416.3,352z"/>
</svg>
