<?xml version="1.0" encoding="utf-8"?>
<svg xmlns="http://www.w3.org/2000/svg" viewBox="0 0 512 512">
<path d="M256,468c-67.1,0-130.5-21.2-178.4-59.8c-24-19.3-42.9-41.9-56.3-67.3C7.2,314.1,0,285.5,0,256s7.2-58.1,21.3-85 c13.3-25.3,32.3-48,56.3-67.3C125.5,65.2,188.9,44,256,44c67.1,0,130.5,21.2,178.4,59.8c24,19.3,42.9,41.9,56.3,67.3 c14.1,26.8,21.3,55.4,21.3,85s-7.2,58.1-21.3,85c-13.3,25.3-32.3,48-56.3,67.3C386.5,446.8,323.1,468,256,468z M256,108 c-52.6,0-101.7,16.2-138.3,45.7C83.1,181.5,64,217.8,64,256s19.1,74.5,53.7,102.3C154.3,387.8,203.4,404,256,404 c52.6,0,101.7-16.2,138.3-45.7C428.9,330.5,448,294.2,448,256s-19.1-74.5-53.7-102.3C357.7,124.2,308.6,108,256,108z"/>
</svg>
