<?xml version="1.0" encoding="utf-8"?>
<svg xmlns="http://www.w3.org/2000/svg" viewBox="-43 -43 598 598">
<rect x="-43" y="-43" width="598" height="598" fill="#ccc"/>
<path d="M464,448H48c-26.5,0-48-21.5-48-48V112c0-26.5,21.5-48,48-48h416c26.5,0,48,21.5,48,48v288C512,426.5,490.5,448,464,448zM256,299.5c-25.4,0-46,20.6-46,46s20.6,46,46,46s46-20.6,46-46S281.4,299.5,256,299.5z M212.3,134.2l7.4,136c0.3,6.4,5.6,11.3,12,11.3h48.5c6.4,0,11.6-5,12-11.3l7.4-136c0.4-6.9-5.1-12.7-12-12.7h-63.4C217.4,121.5,212,127.3,212.3,134.2L212.3,134.2z"/>
</svg>
