<?xml version="1.0" encoding="utf-8"?>
<svg xmlns="http://www.w3.org/2000/svg" viewBox="-43 -43 598 598">
<rect x="-43" y="-43" width="598" height="598" fill="#ccc"/>
<path d="M120,120h32v32h-32V120z M360,360h32v32h-32V360z M360,120h32v32h-32V120z M424,216c17.7,0,32-14.3,32-32v-16h56v-64h-56V88c0-17.7-14.3-32-32-32h-16V0h-64v56h-16c-17.7,0-32,14.3-32,32v16h-80V88c0-17.7-14.3-32-32-32h-16V0h-64v56H88c-17.7,0-32,14.3-32,32v16H0v64h56v16c0,17.7,14.3,32,32,32h16v80H88c-17.7,0-32,14.3-32,32v16H0v64h56v16c0,17.7,14.3,32,32,32h16v56h64v-56h16c17.7,0,32-14.3,32-32v-16h80v16c0,17.7,14.3,32,32,32h16v56h64v-56h16c17.7,0,32-14.3,32-32v-16h56v-64h-56v-16c0-17.7-14.3-32-32-32h-16v-80H424z M328,296c-17.7,0-32,14.3-32,32v16h-80v-16c0-17.7-14.3-32-32-32h-16v-80h16c17.7,0,32-14.3,32-32v-16h80v16c0,17.7,14.3,32,32,32h16v80H328z M120,360h32v32h-32V360z"/>
</svg>
