<?xml version="1.0" encoding="utf-8"?>
<svg xmlns="http://www.w3.org/2000/svg" viewBox="-43 -43 598 598">
<rect x="-43" y="-43" width="598" height="598" fill="#ccc"/>
<path d="M406.2,512H512V328.8l-36,62.4L416.4,288H512v-64h-95.6L476,120.8l36,62.4V0H406.2l19.3,33.5H306.4L325.8,0h-73.9L251,1.5L250.1,0h-73.9l19.3,33.5H86.4L105.8,0H31.9L31,1.5L30.1,0H0v183.2l31-53.7L85.6,224H0v64h85.6L31,382.5L0,328.8V512h30.1l0.9-1.5l0.9,1.5h73.9l-19.3-33.5h109.1L176.2,512h73.9l0.9-1.5l0.9,1.5h73.9l-19.3-33.5h119.1L406.2,512z M86.4,414.5L141,320l54.6,94.5H86.4z M141,192L86.4,97.5h109.1L141,192z M251,382.5L196.4,288h109.1L251,382.5z M196.4,224l54.6-94.5l54.6,94.5H196.4zM306.4,414.5L361,320l54.6,94.5H306.4z M361,192l-54.6-94.5h109.1L361,192z"/>
</svg>
