<?xml version="1.0" encoding="utf-8"?>
<svg xmlns="http://www.w3.org/2000/svg" viewBox="-43 -43 598 598">
<rect x="-43" y="-43" width="598" height="598" fill="#ccc"/>
<path d="M512,168v-64H408V0h-64v104H168V0h-64v104H0v64h104v176H0v64h104v104h64V408h176v104h64V408h104v-64H408V168H512zM344,344H168V168h176V344zM0,84V32h32V0h52v2.4v54.4C84,71.8,71.8,84,56.8,84H0zM512,428v52h-32v32h-52v-29.6v-27.2c0-15,12.2-27.2,27.2-27.2h27.2H512zM240,0v32h32V0h52v2.4v54.4c0,15-12.2,27.2-27.2,27.2h-81.6c-15,0-27.2-12.2-27.2-27.2V0H240zM272,512v-32h-32v32h-52v-56.8c0-15,12.2-27.2,27.2-27.2h54.4h27.2c15,0,27.2,12.2,27.2,27.2v27.2V512H272zM29.6,324H0v-52h32v-32H0v-52h56.8c15,0,27.2,12.2,27.2,27.2v54.4v27.2c0,15-12.2,27.2-27.2,27.2H29.6zM296.8,188h-81.6c-15,0-27.2,12.2-27.2,27.2v81.6c0,15,12.2,27.2,27.2,27.2h54.4h27.2c15,0,27.2-12.2,27.2-27.2v-27.2v-54.4C324,200.2,311.8,188,296.8,188zM272,272h-32v-32h32V272zM32,512v-32H0v-52h29.6h27.2c15,0,27.2,12.2,27.2,27.2v27.2V512H32zM480,240v32h32v52h-29.6h-27.2c-15,0-27.2-12.2-27.2-27.2v-27.2v-54.4c0-15,12.2-27.2,27.2-27.2H512v52H480zM480,0v32h32v52h-56.8c-15,0-27.2-12.2-27.2-27.2V2.4V0H480z"/>
</svg>
