<?xml version="1.0" encoding="utf-8"?>
<svg xmlns="http://www.w3.org/2000/svg" viewBox="-43 -43 598 598">
<rect x="-43" y="-43" width="598" height="598" fill="#ccc"/>
<path d="M384,240v32c0,6.6-5.4,12-12,12h-88v88c0,6.6-5.4,12-12,12h-32c-6.6,0-12-5.4-12-12v-88h-88c-6.6,0-12-5.4-12-12v-32c0-6.6,5.4-12,12-12h88v-88c0-6.6,5.4-12,12-12h32c6.6,0,12,5.4,12,12v88h88C378.6,228,384,233.4,384,240zM480,80v352c0,26.5-21.5,48-48,48H80c-26.5,0-48-21.5-48-48V80c0-26.5,21.5-48,48-48h352C458.5,32,480,53.5,480,80zM432,426V86c0-3.3-2.7-6-6-6H86c-3.3,0-6,2.7-6,6v340c0,3.3,2.7,6,6,6h340C429.3,432,432,429.3,432,426z"/>
</svg>
