<?xml version="1.0" encoding="utf-8"?>
<svg xmlns="http://www.w3.org/2000/svg" viewBox="0 0 512 512">
<path d="M505,476.7L476.7,505c-9.4,9.4-24.6,9.4-33.9,0L343,405.3c-4.5-4.5-7-10.6-7-17V372c-35.3,27.6-79.7,44-128,44C93.1,416,0,322.9,0,208S93.1,0,208,0s208,93.1,208,208c0,48.3-16.4,92.7-44,128h16.3c6.4,0,12.5,2.5,17,7l99.7,99.7C514.3,452.1,514.3,467.3,505,476.7z M344,208c0-75.2-60.8-136-136-136S72,132.8,72,208s60.8,136,136,136S344,283.2,344,208zM256,240h-16V128c0-8.8-7.2-16-16-16h-48c-6,0-11.6,3.4-14.3,8.8l-16,32c-4,7.9-0.8,17.5,7.1,21.5c2.2,1.1,4.7,1.7,7.2,1.7h16v64h-16c-8.8,0-16,7.2-16,16v32c0,8.8,7.2,16,16,16h96c8.8,0,16-7.2,16-16v-32C272,247.2,264.8,240,256,240z"/>
</svg>
