<?xml version="1.0" encoding="utf-8"?>
<svg xmlns="http://www.w3.org/2000/svg" viewBox="0 0 512 512">
<path d="M514,52V12c0-6.6-5.3-11.9-11.8-12C469.6-0.3,424.5,0,386,38C348.3,0.7,305-0.1,269.9,0.1c-6.6,0-11.9,5.4-11.9,12v39.6c0,6.7,5.5,12.1,12.1,12c26-0.3,83.9,3.5,83.9,48.4V224h-36c-6.6,0-12,5.4-12,12v40c0,6.6,5.4,12,12,12h36v112c0,44.9-56.1,48-84,48c-6.6,0-12,5.3-12,12v40c0,6.6,5.3,11.9,11.8,12c32.5,0.4,77.7,0.1,116.2-37.9c37.7,37.2,81,38.1,116.1,37.8c6.6,0,11.9-5.4,11.9-12v-39.6c0-6.7-5.5-12.1-12.1-12c-26,0.3-83.9-3.3-83.9-48.2V288h36c6.6,0,12-5.4,12-12v-40c0-6.6-5.4-12-12-12h-36V112.2c0-44.9,56.1-48.2,84-48.1C508.6,64.1,514,58.7,514,52z M310.2,410.9l-129-357.5C176.9,40.6,164.9,32,151.3,32h-46.6c-13.5,0-25.6,8.6-29.9,21.4L0,260.9v213.2h49.1c8.7,0,15.8-7.1,15.8-15.8v-31.6c0-8.7-7.1-15.8-15.8-15.8H29.8l23-63.2h150.6l23,63.2H207c-8.7,0-15.8,7.1-15.8,15.8v31.6c0,8.7,7.1,15.8,15.8,15.8h39V460c0-13.2,10.8-24,24-24c49.4,0,64.9-12.8,69.8-23.6c-2-0.9-4.2-1.4-6.5-1.4H310.2z M81.6,268.8L128,141l46.5,127.8H81.6z"/>
</svg>
