<?xml version="1.0" encoding="utf-8"?>
<svg xmlns="http://www.w3.org/2000/svg" viewBox="-43 -43 598 598">
<rect x="-43" y="-43" width="598" height="598" fill="#ccc"/>
<path d="M118,221.8c-22.1,34.2-38,67.7-38,112.1C80,432.3,158.7,512,256,512c42.5,0,81.4-15.2,111.7-40.5L118,221.8z M256,448c-61.8,0-112-50.3-112-112c0-8.8,7.2-16,16-16c8.8,0,16,7.2,16,16c0,44.1,35.9,80,80,80c8.8,0,16,7.2,16,16C272,440.8,264.8,448,256,448z M503,471c-12.5,12.5-32.8,12.5-45.2,0l-48.8-48.8l0,0L36.7,50c-6.2-6.3-6.2-16.4,0-22.6L59.3,4.8c6.2-6.3,16.4-6.3,22.6,0l107.5,107.5c14-25.7,27-55.1,37.4-90.1c9-30.1,50.5-28.8,58.4,0C332.2,180.6,432,222.2,432,333.9c0,6.7-0.4,13.3-1.1,19.8l72.1,72.1C515.5,438.3,515.5,458.5,503,471z"/>
</svg>
