<?xml version="1.0" encoding="utf-8"?>
<svg xmlns="http://www.w3.org/2000/svg" viewBox="-43 -43 598 598">
<rect x="-43" y="-43" width="598" height="598" fill="#ccc"/>
<path d="M480,240v96c0,3.1-0.4,6.2-1.1,9.2l-32,136c-4.3,18.1-20.4,30.8-38.9,30.8H200c-12.8,0-24.8-6.1-32.4-16.5l-128-176c-13-17.9-9-42.9,8.8-55.9c17.9-13,42.9-9,55.9,8.8L136,316V40c0-22.1,17.9-40,40-40s40,17.9,40,40v200h8v-40c0-22.1,17.9-40,40-40s40,17.9,40,40v40h8v-24c0-22.1,17.9-40,40-40s40,17.9,40,40v24h8c0-22.1,17.9-40,40-40S480,217.9,480,240z M224,320h-8v96h8V320zM312,320h-8v96h8V320z M400,320h-8v96h8V320z M512,44c-17.5,9.6-67.9,34.5-108.4,29.1l-0.2,0c-11.8-1.4-20.2-8.8-34-21.9c-23.4-22-55.4-52.2-126.7-40c-10.9,1.9-18.2,12.2-16.3,23.1c1.9,10.9,12.2,18.2,23.1,16.3c51.6-8.9,70.6,9,92.5,29.7c14.6,13.8,31.1,29.3,56.6,32.4c5.4,0.7,10.9,1,16.5,1c35.9,0,72.8-13.8,97-25V44z"/>
</svg>
