<?xml version="1.0" encoding="utf-8"?>
<svg xmlns="http://www.w3.org/2000/svg" viewBox="-43 -43 598 598">
<rect x="-43" y="-43" width="598" height="598" fill="#ccc"/>
<path d="M505,476.7L476.7,505c-9.4,9.4-24.6,9.4-33.9,0L343,405.3c-4.5-4.5-7-10.6-7-17V372c-35.3,27.6-79.7,44-128,44C93.1,416,0,322.9,0,208S93.1,0,208,0s208,93.1,208,208c0,48.3-16.4,92.7-44,128h16.3c6.4,0,12.5,2.5,17,7l99.7,99.7C514.3,452.1,514.3,467.3,505,476.7z M344,208c0-75.1-60.9-136-136-136S72,132.9,72,208s60.9,136,136,136S344,283.1,344,208zM269.8,185.8l8.9,8.9c3.1,3.1,7.2,4.7,11.3,4.7c2.1,0,4.1-0.4,6.1-1.2c6-2.5,9.9-8.3,9.9-14.8V126c0-8.8-7.2-16-16-16h-57.3c-6.5,0-12.3,3.9-14.8,9.9c-2.5,6-1.1,12.9,3.5,17.4l8.9,8.9L208,168.4l-22.2-22.2l8.9-8.9c4.6-4.6,5.9-11.5,3.5-17.4c-2.5-6-8.3-9.9-14.8-9.9H126c-8.8,0-16,7.2-16,16v57.3c0,6.5,3.9,12.3,9.9,14.8c2,0.8,4.1,1.2,6.1,1.2c4.2,0,8.3-1.6,11.3-4.7l8.9-8.9l22.2,22.2l-22.2,22.2l-8.9-8.9c-4.6-4.6-11.5-5.9-17.4-3.5c-6,2.5-9.9,8.3-9.9,14.8V290c0,8.8,7.2,16,16,16h57.3c6.5,0,12.3-3.9,14.8-9.9s1.1-12.9-3.5-17.4l-8.9-8.9l22.2-22.2l22.2,22.2l-8.9,8.9c-4.6,4.6-5.9,11.5-3.5,17.4s8.3,9.9,14.8,9.9H290c8.8,0,16-7.2,16-16v-57.3c0-6.5-3.9-12.3-9.9-14.8c-6-2.5-12.9-1.1-17.4,3.5l-8.9,8.9L247.6,208L269.8,185.8z"/>
</svg>
